# xmcd
#
# Track frame offsets:
#  150
#  14394
#  30648
#  43511
#  54010
#  71210
#  84163
#  99213
#  114501
#  130702
#  145880
#  165795
#  179044
#  196161
#  209594
#  225813
#  240796
#  259387
#  270460
#  288813
#
# Disc length: 4094 seconds
#
# Revision: 0
# Processed by: cddbd v1.5.2PL0 Copyright (c) Steve Scherf et al.
# Submitted via: AltoMP3_Maker 3.0
#
DISCID=fc0ffc14
DTITLE=Various Artist - Afrikaans se 60 grootste treffers vol 2 cd 2
DYEAR=1900
DGENRE=
TTITLE0=Doodgewoon
TTITLE1=Huise van glas
TTITLE2=Karoonag
TTITLE3=Stuur groete aan Mannetjies Roux
TTITLE4=Ek het jou baie lief
TTITLE5=My hart het n kleine venster
TTITLE6=Gee hom gas
TTITLE7=Karolis
TTITLE8=Anna
TTITLE9=Jy bly steeds die een
TTITLE10=Horisontaal
TTITLE11=Veels Geluk
TTITLE12=Reen in die Kaap
TTITLE13=Jy kan my druk
TTITLE14=Versoeking
TTITLE15=Hierdie aand
TTITLE16=Feestyd se wysie
TTITLE17=Saam
TTITLE18=Die wereld weet
TTITLE19=Engelliedjie
EXTD=
EXTT0=
EXTT1=
EXTT2=
EXTT3=
EXTT4=
EXTT5=
EXTT6=
EXTT7=
EXTT8=
EXTT9=
EXTT10=
EXTT11=
EXTT12=
EXTT13=
EXTT14=
EXTT15=
EXTT16=
EXTT17=
EXTT18=
EXTT19=
PLAYORDER=
